<mxfile host="app.diagrams.net" agent="Mozilla/5.0 (Windows NT 10.0; Win64; x64) AppleWebKit/537.36 (KHTML, like Gecko) Chrome/132.0.0.0 Safari/537.36" version="26.0.10">
  <diagram name="PÃ¡gina-1" id="tIMVq2skNEMbjBdIL48U">
    <mxGraphModel dx="880" dy="434" grid="1" gridSize="10" guides="1" tooltips="1" connect="1" arrows="1" fold="1" page="1" pageScale="1" pageWidth="827" pageHeight="1169" math="0" shadow="0">
      <root>
        <mxCell id="0" />
        <mxCell id="1" parent="0" />
        <mxCell id="LgxQKQm5_TDcoy7y2wtH-9" style="edgeStyle=orthogonalEdgeStyle;rounded=0;orthogonalLoop=1;jettySize=auto;html=1;exitX=0.5;exitY=1;exitDx=0;exitDy=0;exitPerimeter=0;" edge="1" parent="1" source="LgxQKQm5_TDcoy7y2wtH-1" target="LgxQKQm5_TDcoy7y2wtH-3">
          <mxGeometry relative="1" as="geometry" />
        </mxCell>
        <mxCell id="LgxQKQm5_TDcoy7y2wtH-1" value="&lt;font style=&quot;vertical-align: inherit;&quot;&gt;&lt;font style=&quot;vertical-align: inherit;&quot;&gt;INICIO&lt;/font&gt;&lt;/font&gt;" style="strokeWidth=2;html=1;shape=mxgraph.flowchart.start_1;whiteSpace=wrap;" vertex="1" parent="1">
          <mxGeometry x="346" y="50" width="136" height="80" as="geometry" />
        </mxCell>
        <mxCell id="LgxQKQm5_TDcoy7y2wtH-2" value="&lt;font style=&quot;vertical-align: inherit;&quot;&gt;&lt;font style=&quot;vertical-align: inherit;&quot;&gt;FIM&lt;/font&gt;&lt;/font&gt;" style="strokeWidth=2;html=1;shape=mxgraph.flowchart.start_1;whiteSpace=wrap;" vertex="1" parent="1">
          <mxGeometry x="346" y="680" width="136" height="80" as="geometry" />
        </mxCell>
        <mxCell id="LgxQKQm5_TDcoy7y2wtH-10" style="edgeStyle=orthogonalEdgeStyle;rounded=0;orthogonalLoop=1;jettySize=auto;html=1;exitX=0.5;exitY=1;exitDx=0;exitDy=0;" edge="1" parent="1" source="LgxQKQm5_TDcoy7y2wtH-3" target="LgxQKQm5_TDcoy7y2wtH-4">
          <mxGeometry relative="1" as="geometry" />
        </mxCell>
        <mxCell id="LgxQKQm5_TDcoy7y2wtH-3" value="&lt;font style=&quot;vertical-align: inherit;&quot;&gt;&lt;font style=&quot;vertical-align: inherit;&quot;&gt;&lt;font style=&quot;vertical-align: inherit;&quot;&gt;&lt;font style=&quot;vertical-align: inherit;&quot;&gt;&amp;nbsp; &amp;nbsp; &amp;nbsp; &amp;nbsp;N1, N2, N3, N4, QUADRADO,&amp;nbsp;&lt;/font&gt;&lt;/font&gt;&lt;/font&gt;&lt;/font&gt;&lt;div&gt;&lt;font style=&quot;vertical-align: inherit;&quot;&gt;&lt;font style=&quot;vertical-align: inherit;&quot;&gt;SOMA&lt;/font&gt;&lt;/font&gt;&lt;/div&gt;" style="shape=parallelogram;html=1;strokeWidth=2;perimeter=parallelogramPerimeter;whiteSpace=wrap;rounded=1;arcSize=12;size=0.23;" vertex="1" parent="1">
          <mxGeometry x="291" y="150" width="246" height="50" as="geometry" />
        </mxCell>
        <mxCell id="LgxQKQm5_TDcoy7y2wtH-11" style="edgeStyle=orthogonalEdgeStyle;rounded=0;orthogonalLoop=1;jettySize=auto;html=1;exitX=0.5;exitY=1;exitDx=0;exitDy=0;" edge="1" parent="1" source="LgxQKQm5_TDcoy7y2wtH-4" target="LgxQKQm5_TDcoy7y2wtH-5">
          <mxGeometry relative="1" as="geometry" />
        </mxCell>
        <mxCell id="LgxQKQm5_TDcoy7y2wtH-4" value="&lt;font style=&quot;vertical-align: inherit;&quot;&gt;&lt;font style=&quot;vertical-align: inherit;&quot;&gt;para(N = 0; N &amp;lt; 4; N + 1)&lt;/font&gt;&lt;/font&gt;" style="rounded=1;whiteSpace=wrap;html=1;absoluteArcSize=1;arcSize=14;strokeWidth=2;" vertex="1" parent="1">
          <mxGeometry x="256" y="230" width="316" height="50" as="geometry" />
        </mxCell>
        <mxCell id="LgxQKQm5_TDcoy7y2wtH-12" style="edgeStyle=orthogonalEdgeStyle;rounded=0;orthogonalLoop=1;jettySize=auto;html=1;exitX=0.5;exitY=1;exitDx=0;exitDy=0;entryX=0.5;entryY=0;entryDx=0;entryDy=0;" edge="1" parent="1" source="LgxQKQm5_TDcoy7y2wtH-5" target="LgxQKQm5_TDcoy7y2wtH-6">
          <mxGeometry relative="1" as="geometry" />
        </mxCell>
        <mxCell id="LgxQKQm5_TDcoy7y2wtH-5" value="&lt;font style=&quot;vertical-align: inherit;&quot;&gt;&lt;font style=&quot;vertical-align: inherit;&quot;&gt;LER N1, N2, N3, N4&lt;/font&gt;&lt;/font&gt;" style="shape=parallelogram;html=1;strokeWidth=2;perimeter=parallelogramPerimeter;whiteSpace=wrap;rounded=1;arcSize=12;size=0.23;" vertex="1" parent="1">
          <mxGeometry x="291" y="310" width="246" height="50" as="geometry" />
        </mxCell>
        <mxCell id="LgxQKQm5_TDcoy7y2wtH-13" style="edgeStyle=orthogonalEdgeStyle;rounded=0;orthogonalLoop=1;jettySize=auto;html=1;exitX=0.5;exitY=1;exitDx=0;exitDy=0;entryX=0.5;entryY=0;entryDx=0;entryDy=0;" edge="1" parent="1" source="LgxQKQm5_TDcoy7y2wtH-6" target="LgxQKQm5_TDcoy7y2wtH-7">
          <mxGeometry relative="1" as="geometry" />
        </mxCell>
        <mxCell id="LgxQKQm5_TDcoy7y2wtH-6" value="&lt;font style=&quot;vertical-align: inherit;&quot;&gt;&lt;font style=&quot;vertical-align: inherit;&quot;&gt;&lt;font style=&quot;vertical-align: inherit;&quot;&gt;&lt;font style=&quot;vertical-align: inherit;&quot;&gt;QUADRADO(N1, N2, N3, N4)&lt;/font&gt;&lt;/font&gt;&lt;/font&gt;&lt;/font&gt;" style="rounded=1;whiteSpace=wrap;html=1;absoluteArcSize=1;arcSize=14;strokeWidth=2;" vertex="1" parent="1">
          <mxGeometry x="256" y="390" width="316" height="50" as="geometry" />
        </mxCell>
        <mxCell id="LgxQKQm5_TDcoy7y2wtH-7" value="&lt;font style=&quot;vertical-align: inherit;&quot;&gt;&lt;font style=&quot;vertical-align: inherit;&quot;&gt;&lt;font style=&quot;vertical-align: inherit;&quot;&gt;&lt;font style=&quot;vertical-align: inherit;&quot;&gt;&lt;font style=&quot;vertical-align: inherit;&quot;&gt;&lt;font style=&quot;vertical-align: inherit;&quot;&gt;SOMA = SOMA QUADRADO(N1, N2, N3, N4)&lt;/font&gt;&lt;/font&gt;&lt;/font&gt;&lt;/font&gt;&lt;/font&gt;&lt;/font&gt;" style="rounded=1;whiteSpace=wrap;html=1;absoluteArcSize=1;arcSize=14;strokeWidth=2;" vertex="1" parent="1">
          <mxGeometry x="256" y="470" width="316" height="50" as="geometry" />
        </mxCell>
        <mxCell id="LgxQKQm5_TDcoy7y2wtH-15" style="edgeStyle=orthogonalEdgeStyle;rounded=0;orthogonalLoop=1;jettySize=auto;html=1;exitX=0.5;exitY=1;exitDx=0;exitDy=0;exitPerimeter=0;" edge="1" parent="1" source="LgxQKQm5_TDcoy7y2wtH-8" target="LgxQKQm5_TDcoy7y2wtH-2">
          <mxGeometry relative="1" as="geometry" />
        </mxCell>
        <mxCell id="LgxQKQm5_TDcoy7y2wtH-8" value="&lt;font style=&quot;vertical-align: inherit;&quot;&gt;&lt;font style=&quot;vertical-align: inherit;&quot;&gt;&lt;font style=&quot;vertical-align: inherit;&quot;&gt;&lt;font style=&quot;vertical-align: inherit;&quot;&gt;SOMA DOS QUADRADOS&lt;/font&gt;&lt;/font&gt;&lt;/font&gt;&lt;/font&gt;" style="strokeWidth=2;html=1;shape=mxgraph.flowchart.display;whiteSpace=wrap;" vertex="1" parent="1">
          <mxGeometry x="321" y="550" width="186" height="100" as="geometry" />
        </mxCell>
        <mxCell id="LgxQKQm5_TDcoy7y2wtH-14" style="edgeStyle=orthogonalEdgeStyle;rounded=0;orthogonalLoop=1;jettySize=auto;html=1;exitX=0.5;exitY=1;exitDx=0;exitDy=0;entryX=0.5;entryY=0;entryDx=0;entryDy=0;entryPerimeter=0;" edge="1" parent="1" source="LgxQKQm5_TDcoy7y2wtH-7" target="LgxQKQm5_TDcoy7y2wtH-8">
          <mxGeometry relative="1" as="geometry" />
        </mxCell>
      </root>
    </mxGraphModel>
  </diagram>
</mxfile>
